<svg width="25" height="25" viewBox="0 0 25 25" fill="none" xmlns="http://www.w3.org/2000/svg">
<g clip-path="url(#clip0_605_105)">
<path d="M7 1H17.4582C20.7719 1 23.4582 3.68629 23.4582 7V17.9145C23.4582 21.2282 20.7719 23.9145 17.4582 23.9145H7C3.68629 23.9145 1 21.2282 1 17.9145V7C1 3.68629 3.68629 1 7 1Z" stroke="black" stroke-width="2"/>
<path d="M6.65819 16.6215H5.1533C4.48155 16.6215 3.93506 17.1377 3.93506 17.7723V19.1938C3.93506 19.8284 4.48155 20.3446 5.1533 20.3446H6.65819C7.32994 20.3446 7.87643 19.8284 7.87643 19.1938V17.7723C7.87643 17.1377 7.32994 16.6215 6.65819 16.6215ZM7.15981 19.1938C7.15981 19.4551 6.9348 19.6677 6.65819 19.6677H5.1533C4.87669 19.6677 4.65167 19.4551 4.65167 19.1938V17.7723C4.65167 17.5111 4.87669 17.2984 5.1533 17.2984H6.65819C6.9348 17.2984 7.15981 17.5111 7.15981 17.7723V19.1938Z" fill="black"/>
<path d="M7.64396 6.13273C7.42238 5.84416 7.06357 5.65543 6.65819 5.65543H5.1533C4.48155 5.65543 3.93506 6.17165 3.93506 6.8062V8.22774C3.93506 8.86229 4.48155 9.37851 5.1533 9.37851H6.65819C7.32994 9.37851 7.87643 8.86229 7.87643 8.22774V6.8062C7.87643 6.77012 7.87413 6.73451 7.87069 6.69925L8.78423 5.8363L8.37103 5.44592L7.64396 6.13273ZM7.15981 8.22774C7.15981 8.48903 6.9348 8.70158 6.65819 8.70158H5.1533C4.87669 8.70158 4.65167 8.48903 4.65167 8.22774V6.8062C4.65167 6.54491 4.87669 6.33235 5.1533 6.33235H6.65819C6.86722 6.33235 7.04659 6.45386 7.12191 6.62587L6.02871 7.65851L5.29146 6.96216L4.88615 7.34503L5.85902 8.26402L5.86009 8.26294L6.0376 8.43082L7.15981 7.37075V8.22774Z" fill="black"/>
<path d="M8.37103 10.9288L7.64396 11.6156C7.42238 11.3271 7.06357 11.1383 6.65819 11.1383H5.1533C4.48155 11.1383 3.93506 11.6546 3.93506 12.2891V13.7106C3.93506 14.3452 4.48155 14.8614 5.1533 14.8614H6.65819C7.32994 14.8614 7.87643 14.3452 7.87643 13.7106V12.2891C7.87643 12.253 7.87413 12.2174 7.87069 12.1822L8.78423 11.3192L8.37103 10.9288ZM7.15981 13.7106C7.15981 13.9719 6.9348 14.1845 6.65819 14.1845H5.1533C4.87669 14.1845 4.65167 13.9719 4.65167 13.7106V12.2891C4.65167 12.0278 4.87669 11.8153 5.1533 11.8153H6.65819C6.86722 11.8153 7.04659 11.9368 7.12191 12.1088L6.02871 13.1414L5.29146 12.4451L4.88615 12.8279L5.85902 13.7469L5.86009 13.7458L6.0376 13.9137L7.15981 12.8537V13.7106Z" fill="black"/>
<path d="M20.4173 5.9939H9.45312V6.60313H20.4173V5.9939Z" fill="black"/>
<path d="M15.2577 7.21228H9.45312V7.82151H15.2577V7.21228Z" fill="black"/>
<path d="M20.4173 12.0862H9.45312V12.6954H20.4173V12.0862Z" fill="black"/>
<path d="M18.4824 13.3047H9.45312V13.9139H18.4824V13.3047Z" fill="black"/>
<path d="M19.7723 17.5692H9.45312V18.1784H19.7723V17.5692Z" fill="black"/>
</g>
<defs>
<clipPath id="clip0_605_105">
<rect width="25" height="25" fill="white"/>
</clipPath>
</defs>
</svg>
